<svg width="390" height="92" viewBox="0 0 390 92" fill="none" xmlns="http://www.w3.org/2000/svg">
  <defs>
    <linearGradient id="badge" x1="8" y1="8" x2="76" y2="84" gradientUnits="userSpaceOnUse">
      <stop stop-color="#C92E35"/>
      <stop offset="1" stop-color="#7F151C"/>
    </linearGradient>
    <linearGradient id="gold" x1="29" y1="18" x2="61" y2="72" gradientUnits="userSpaceOnUse">
      <stop stop-color="#FFE59A"/>
      <stop offset="0.45" stop-color="#E5B52A"/>
      <stop offset="1" stop-color="#A86C05"/>
    </linearGradient>
  </defs>
  <circle cx="47" cy="46" r="40" fill="url(#badge)"/>
  <circle cx="47" cy="46" r="37" stroke="#F1D06A" stroke-opacity=".7" stroke-width="1.5"/>
  <path d="M22 54H27L32 40C33 37 36 35 40 35H55C59 35 62 37 64 40L69 54H73C75 54 76 56 76 58V63C76 65 74 67 72 67H69C68 72 64 75 59 75C54 75 51 72 50 67H44C43 72 40 75 35 75C30 75 27 72 26 67H22C20 67 18 65 18 63V58C18 56 20 54 22 54Z" fill="url(#gold)"/>
  <path d="M32 49H64L60 40C59 38 57 37 54 37H42C38 37 36 39 35 42L32 49Z" fill="#9B2027"/>
  <path d="M24 56H70" stroke="#FFF0B2" stroke-width="2" stroke-linecap="round" opacity=".8"/>
  <circle cx="35" cy="66" r="5" fill="#11120F" stroke="#FFE59A" stroke-width="2"/>
  <circle cx="59" cy="66" r="5" fill="#11120F" stroke="#FFE59A" stroke-width="2"/>
  <path d="M23 80C37 75 57 75 71 80" stroke="#F1D06A" stroke-width="2" stroke-linecap="round"/>
  <text x="101" y="42" fill="#B5262D" font-family="Georgia, serif" font-size="30" font-weight="700" letter-spacing=".5">MAHAKAL</text>
  <text x="103" y="63" fill="#29231B" font-family="Arial, sans-serif" font-size="11" font-weight="700" letter-spacing="4.2">TOURS &amp; TRAVELS</text>
  <path d="M103 73H300" stroke="#D3A124" stroke-width="2" stroke-linecap="round"/>
  <path d="M304 73C315 68 326 68 337 73C348 78 359 78 370 73" stroke="#D3A124" stroke-width="2" stroke-linecap="round"/>
</svg>
