<svg width="900" height="520" viewBox="0 0 900 520" fill="none" xmlns="http://www.w3.org/2000/svg">
<defs><linearGradient id="bg" x1="0" y1="0" x2="900" y2="520"><stop stop-color="#e5f0ef"/><stop offset="1" stop-color="#a9c9c5"/></linearGradient><linearGradient id="car" x1="170" y1="180" x2="720" y2="410"><stop stop-color="#253f46"/><stop offset="1" stop-color="#0d2027"/></linearGradient></defs>
<rect width="900" height="520" rx="30" fill="url(#bg)"/><circle cx="720" cy="108" r="84" fill="#fff" fill-opacity=".42"/><path d="M92 407C248 380 650 380 812 407" stroke="#739b96" stroke-width="5" stroke-linecap="round"/>
<path d="M163 362L205 270C216 244 243 225 276 221L460 195C500 189 540 199 568 222L639 280L715 293C739 297 758 315 763 338L771 373H144L150 349C152 340 158 333 169 331L163 362Z" fill="url(#car)" stroke="#0a181d" stroke-width="8"/><path d="M279 220L453 198C493 193 526 204 551 226L605 273H238L258 239C263 230 270 224 279 220Z" fill="#192b35"/><path d="M452 200L461 273M537 212L576 273" stroke="#bed9dc" stroke-width="5" opacity=".72"/><path d="M170 329H756" stroke="#e5b52a" stroke-width="6"/><circle cx="257" cy="374" r="47" fill="#111a1f"/><circle cx="257" cy="374" r="20" fill="#d5ac2b"/><circle cx="665" cy="374" r="47" fill="#111a1f"/><circle cx="665" cy="374" r="20" fill="#d5ac2b"/><rect x="730" y="307" width="26" height="23" rx="8" fill="#ffe19a"/><rect x="150" y="309" width="23" height="22" rx="7" fill="#dcebea"/>
</svg>
